<?xml version="1.0" standalone="no"?>
<!DOCTYPE svg PUBLIC "-//W3C//DTD SVG 20010904//EN"
 "http://www.w3.org/TR/2001/REC-SVG-20010904/DTD/svg10.dtd">
<svg version="1.0" xmlns="http://www.w3.org/2000/svg"
 width="690.000000pt" height="173.000000pt" viewBox="0 0 690.000000 173.000000"
 preserveAspectRatio="xMidYMid meet">

<g transform="translate(0.000000,173.000000) scale(0.100000,-0.100000)"
fill="#36506b" stroke="none">
<path d="M850 1494 c-142 -21 -272 -78 -349 -153 -224 -218 -253 -604 -67
-866 185 -258 598 -310 862 -109 86 65 178 185 157 204 -4 4 -68 31 -142 61
l-133 54 -17 -25 c-62 -96 -133 -141 -231 -148 -84 -6 -152 22 -210 84 -104
113 -127 319 -54 471 30 63 107 135 162 151 51 15 124 15 176 0 40 -12 137
-97 162 -142 10 -19 17 -17 150 39 76 32 141 60 143 61 2 2 -10 25 -27 51 -67
104 -198 206 -307 239 -86 26 -206 38 -275 28z"/>
<path d="M2154 1491 c-138 -22 -259 -85 -360 -185 -195 -195 -237 -463 -114
-713 121 -245 411 -384 690 -329 197 39 367 166 448 337 51 107 63 160 63 273
-1 251 -139 460 -373 565 -111 49 -245 69 -354 52z m231 -325 c72 -33 129 -87
162 -154 24 -49 28 -69 28 -142 0 -72 -4 -92 -27 -135 -33 -64 -89 -120 -153
-153 -44 -24 -62 -27 -145 -27 -76 0 -104 4 -142 22 -160 74 -237 270 -166
425 27 59 91 128 143 156 88 46 210 50 300 8z"/>
<path d="M4735 1489 c-242 -36 -425 -199 -485 -435 -25 -95 -27 -260 -4 -354
51 -219 208 -380 424 -437 103 -27 265 -22 363 10 134 44 263 145 325 255 l22
39 -138 57 c-75 31 -141 56 -147 56 -5 0 -23 -21 -40 -45 -129 -193 -399 -158
-487 64 -18 46 -22 77 -22 171 -1 133 18 196 81 270 108 126 309 121 413 -11
21 -27 40 -54 42 -61 5 -15 288 100 288 118 0 20 -89 132 -133 168 -142 114
-321 162 -502 135z"/>
<path d="M3375 1458 c-3 -7 -79 -220 -171 -473 -91 -253 -186 -515 -210 -582
l-43 -123 164 0 163 0 138 413 137 412 137 -410 137 -410 161 -3 c89 -1 162 1
162 5 0 4 -95 272 -212 595 l-212 588 -173 0 c-130 0 -175 -3 -178 -12z"/>
<path d="M5580 875 l0 -595 145 0 145 0 2 247 3 248 218 3 217 2 0 -250 0
-250 150 0 150 0 0 595 0 595 -150 0 -150 0 0 -235 0 -235 -217 2 -218 3 -3
233 -2 232 -145 0 -145 0 0 -595z"/>
</g>
</svg>
